# xmcd CD database file
#
# Track frame offsets:
#	150
#	14604
#	27989
#	43129
#	57184
#	70849
#	84374
#	97926
#	112009
#	125311
#	139059
#	153141
#	167724
#	181998
#	194653
#	209231
#	221229
#	235946
#	247968
#	261726
#
# Disc length: 3679 seconds
#
# Revision: 0
# Processed by: cddbd v1.5.2PL0 Copyright (c) Steve Scherf et al.
# Submitted via: CDex 1.70beta2
#
DISCID=2b0e5d14
DTITLE=John Lee Hooker - 20 Légendes du Blues CD 02
DYEAR=2008
DGENRE=Blues
TTITLE0=Boogie Chillen
TTITLE1=She Was In Chicago
TTITLE2=Shady Grove Blues
TTITLE3=Talking Boogie
TTITLE4=Hobo Blues
TTITLE5=Drifting From Door To Door
TTITLE6=Crawling King Snake
TTITLE7=Alberta
TTITLE8=Momma Poppa Boogie
TTITLE9=Black Cat Blues
TTITLE10=The Numbers
TTITLE11=Forgive Me
TTITLE12=Sally Mae
TTITLE13=It Hurts Me So
TTITLE14=Four Women In My Life
TTITLE15=No More Doggin'
TTITLE16=Sugar Mama
TTITLE17=Rock Me Mama
TTITLE18=Ride Til I Die
TTITLE19=Cold Chills All Over Me
EXTD=YEAR: 2008
EXTT0=
EXTT1=
EXTT2=
EXTT3=
EXTT4=
EXTT5=
EXTT6=
EXTT7=
EXTT8=
EXTT9=
EXTT10=
EXTT11=
EXTT12=
EXTT13=
EXTT14=
EXTT15=
EXTT16=
EXTT17=
EXTT18=
EXTT19=
PLAYORDER=
